<svg xmlns="http://www.w3.org/2000/svg" width="40" height="120" viewBox="0 0 40 120" fill="none" stroke-width="1.5" stroke-linecap="round">
  <defs>
    <linearGradient id="dnaGrad" x1="0%" y1="0%" x2="100%" y2="100%">
      <stop offset="0%" stop-color="#3b82f6" />
      <stop offset="50%" stop-color="#6366f1" />
      <stop offset="100%" stop-color="#9333ea" />
    </linearGradient>
  </defs>
  
  <g stroke="url(#dnaGrad)">
    <path d="M 20 0 C 40 15, 40 45, 20 60 C 0 75, 0 105, 20 120" opacity="0.9"/>
    <path d="M 20 0 C 0 15, 0 45, 20 60 C 40 75, 40 105, 20 120" opacity="0.7"/>
    
    <line x1="15" y1="10" x2="25" y2="10" opacity="0.4"/>
    <line x1="8" y1="20" x2="32" y2="20" opacity="0.4"/>
    <line x1="5" y1="30" x2="35" y2="30" opacity="0.5"/>
    <line x1="8" y1="40" x2="32" y2="40" opacity="0.4"/>
    <line x1="15" y1="50" x2="25" y2="50" opacity="0.4"/>
    
    <line x1="25" y1="70" x2="15" y2="70" opacity="0.4"/>
    <line x1="32" y1="80" x2="8" y2="80" opacity="0.4"/>
    <line x1="35" y1="90" x2="5" y2="90" opacity="0.5"/>
    <line x1="32" y1="100" x2="8" y2="100" opacity="0.4"/>
    <line x1="25" y1="110" x2="15" y2="110" opacity="0.4"/>
  </g>
</svg>
